<svg width="160" height="160" viewBox="0 0 160 160" fill="none" xmlns="http://www.w3.org/2000/svg">
<path d="M35.7496 119.903C35.6555 119.903 35.5652 119.866 35.4986 119.799C35.432 119.733 35.3947 119.642 35.3947 119.548V113.585C35.3947 113.491 35.432 113.401 35.4986 113.334C35.5652 113.268 35.6555 113.23 35.7496 113.23C35.8437 113.23 35.934 113.268 36.0006 113.334C36.0671 113.401 36.1045 113.491 36.1045 113.585V119.548C36.1045 119.642 36.0671 119.733 36.0006 119.799C35.934 119.866 35.8437 119.903 35.7496 119.903Z" fill="#212529"/>
<path d="M51.3316 68.969C43.097 71.8973 41.3578 56.2621 48.9713 58.7999C56.5848 61.3378 53.3548 47.6725 53.3548 47.6725C44.6942 18.0882 71.2971 12.4446 71.2971 12.4446C71.2971 12.4446 74.1189 10.7054 78.0232 16.1005C78.0232 16.1005 86.3111 12.5333 92.0789 23.1816C97.8467 33.8298 91.2093 50.3701 94.2263 55.215C97.4918 60.4149 100.615 54.7714 102.55 59.5098C104.182 63.5029 96.214 68.0284 94.2263 68.0817L51.3316 68.969Z" fill="#212529"/>
<path d="M49.3263 69.6966C47.2499 69.6966 45.9543 68.4543 45.28 67.567C43.5052 65.2066 43.2213 61.533 44.6588 59.5453C45.6171 58.2143 47.1789 57.8238 49.0778 58.4627C50.4976 58.9242 51.5979 58.8354 52.3433 58.1433C54.8279 55.8717 53.0709 48.063 52.9999 47.7613C50.2491 38.3021 50.7638 30.2804 54.5617 23.9269C59.9745 14.8759 70.3388 12.3026 71.1729 12.1074C71.6166 11.8767 74.4384 10.6876 78.1475 15.6746C79.693 15.174 81.335 15.0462 82.9392 15.3019C85.5835 15.7101 89.3459 17.3783 92.3984 23.0041C95.8059 29.3043 94.9363 37.6454 94.2441 44.3361C93.7472 49.039 93.339 53.1031 94.5281 55.0198C96.0898 57.5221 97.5628 57.3447 98.9648 57.1672C100.367 56.9897 101.84 56.83 102.887 59.3856C103.348 60.5214 103.153 61.7637 102.301 63.077C100.438 65.9343 95.8236 68.4011 94.2441 68.4366L51.4027 69.3239C50.7365 69.5643 50.0345 69.6903 49.3263 69.6966ZM47.4096 58.8709C46.9866 58.8535 46.5661 58.9436 46.1874 59.133C45.8087 59.3223 45.4843 59.6046 45.2445 59.9535C44.0022 61.6927 44.2861 65.0469 45.8479 67.1411C46.611 68.1349 48.3147 69.6789 51.2252 68.6318H51.3317L94.2264 67.7445C95.4687 67.709 99.8877 65.5083 101.698 62.722C102.426 61.604 102.603 60.5924 102.23 59.6695C101.396 57.6286 100.402 57.7351 99.0536 57.8948C97.7048 58.0546 95.7171 58.2853 93.9247 55.4102C92.5936 53.2983 93.0373 49.1278 93.5342 44.2828C94.2264 37.6809 95.0782 29.464 91.7773 23.359C89.4702 19.1175 86.3822 16.5797 82.8328 16.0118C80.1707 15.6036 78.183 16.4377 78.1653 16.4554L77.8991 16.5619L77.7393 16.3312C74.0657 11.2555 71.5101 12.7463 71.4924 12.764L71.4391 12.7995H71.3859C71.2794 12.835 60.6134 15.1954 55.1651 24.3174C51.4737 30.4934 50.9768 38.3376 53.6921 47.6015C53.7808 47.9387 55.662 56.0846 52.8225 58.6757C51.8819 59.5453 50.5331 59.6873 48.8471 59.1371C48.386 58.9692 47.9002 58.8792 47.4096 58.8709Z" fill="#212529"/>
<path d="M88.3168 32.6763H88.2103C78.5026 29.9077 71.5103 21.5666 71.4393 21.4779C71.3781 21.4049 71.3484 21.3106 71.3567 21.2158C71.365 21.1209 71.4107 21.0333 71.4837 20.9721C71.5566 20.9109 71.6509 20.8812 71.7457 20.8895C71.8406 20.8978 71.9283 20.9435 71.9894 21.0164C72.0604 21.1052 78.9108 29.2866 88.4055 31.9841C88.4513 31.9964 88.4941 32.0177 88.5315 32.0468C88.569 32.0759 88.6002 32.1122 88.6233 32.1535C88.6465 32.1949 88.6611 32.2405 88.6664 32.2876C88.6716 32.3347 88.6674 32.3824 88.654 32.4278C88.634 32.5012 88.5898 32.5656 88.5286 32.6107C88.4674 32.6558 88.3927 32.6789 88.3168 32.6763Z" fill="#212529"/>
<path d="M84.306 43.644H84.2173C84.1706 43.6396 84.1252 43.626 84.0838 43.6039C84.0424 43.5818 84.0058 43.5518 83.9761 43.5154C83.9464 43.4791 83.9242 43.4373 83.9107 43.3924C83.8973 43.3474 83.8929 43.3003 83.8978 43.2536C83.9 43.2077 83.9115 43.1627 83.9317 43.1214C83.9519 43.0801 83.9803 43.0433 84.0152 43.0134C84.0501 42.9835 84.0908 42.961 84.1347 42.9474C84.1786 42.9338 84.2248 42.9293 84.2705 42.9342C84.3947 42.9342 87.3585 43.1116 87.8909 38.2667C88.1926 35.6046 87.4472 34.806 86.7373 34.0429C86.0275 33.2797 85.3531 32.5699 85.5483 30.5644C85.5577 30.4703 85.6041 30.3838 85.6773 30.3239C85.7506 30.264 85.8446 30.2356 85.9387 30.245C86.0329 30.2544 86.1194 30.3008 86.1793 30.3741C86.2392 30.4473 86.2676 30.5413 86.2582 30.6354C86.0985 32.3214 86.6309 32.8893 87.252 33.5637C87.8732 34.2381 88.9202 35.3562 88.6008 38.3554C88.0329 43.3956 84.8917 43.644 84.306 43.644Z" fill="#212529"/>
<path d="M80.0464 33.1199H79.9932L75.9646 32.765C75.8453 32.7516 75.7359 32.6921 75.6597 32.5994C75.5835 32.5066 75.5464 32.3877 75.5564 32.2681C75.5608 32.2104 75.5768 32.1542 75.6036 32.103C75.6303 32.0517 75.6673 32.0064 75.7121 31.9699C75.7569 31.9333 75.8087 31.9063 75.8643 31.8905C75.92 31.8746 75.9782 31.8702 76.0356 31.8776L80.0819 32.2326C80.1402 32.2371 80.1971 32.253 80.2493 32.2796C80.3014 32.3061 80.3478 32.3427 80.3857 32.3872C80.4236 32.4318 80.4524 32.4834 80.4703 32.5391C80.4882 32.5948 80.495 32.6534 80.4901 32.7118C80.4741 32.8203 80.4212 32.9201 80.3405 32.9944C80.2597 33.0687 80.1559 33.113 80.0464 33.1199Z" fill="#212529"/>
<path d="M95.9477 119.548C94.9006 117.72 94.315 116.975 94.5457 114.881C94.8829 111.668 95.3975 106.54 95.646 101.712C98.0773 106.54 103.898 114.756 113.713 109.61C115.718 108.563 113.482 76.4937 86.4708 65.881L83.507 70.087C83.0313 70.8347 82.4716 71.5254 81.8388 72.1457C70.5871 82.7939 61.6071 65.881 61.6071 65.881C34.0459 74.1334 36.495 97.0803 33.9749 109.61C32.6616 116.158 40.8963 113.443 48.8292 112.875C52.2544 112.645 52.8756 107.267 52.9288 103.043C52.9264 102.982 52.9485 102.923 52.9901 102.878C53.0317 102.833 53.0894 102.806 53.1506 102.804C53.2118 102.801 53.2714 102.823 53.3164 102.865C53.3613 102.907 53.3879 102.964 53.3902 103.026L54.3308 112.503C54.6006 115.271 54.0968 118.06 52.8756 120.56" fill="#ADB5BD"/>
<path d="M61.6072 65.881C61.6072 65.881 66.7893 68.4011 69.2739 53.4935L77.0649 52.9789C77.0649 52.9789 77.5441 67.3718 86.4708 65.881C86.4708 65.881 75.2192 88.5263 61.6072 65.881Z" fill="#F8F9FA"/>
<path d="M92.6115 31.8244C92.5232 31.8248 92.4379 31.7924 92.3722 31.7333C92.3066 31.6742 92.2653 31.5928 92.2565 31.5049C91.1562 20.8745 82.2827 18.1592 82.1939 18.1414C82.1047 18.1129 82.0304 18.0502 81.9872 17.9671C81.944 17.884 81.9353 17.7872 81.9632 17.6977C81.9734 17.6526 81.9928 17.6101 82.0202 17.5728C82.0475 17.5355 82.0822 17.5042 82.1222 17.4809C82.1621 17.4576 82.2065 17.4428 82.2524 17.4373C82.2983 17.4319 82.3449 17.436 82.3892 17.4493C82.4956 17.4848 84.785 18.1769 87.2518 20.2356C89.7187 22.2942 92.363 25.6307 92.9664 31.434C92.9713 31.4806 92.9669 31.5278 92.9535 31.5727C92.94 31.6177 92.9178 31.6595 92.8881 31.6958C92.8584 31.7321 92.8218 31.7622 92.7804 31.7842C92.739 31.8063 92.6937 31.82 92.647 31.8244H92.6115Z" fill="#F8F9FA"/>
<path d="M92.7529 39.5621C92.6588 39.5621 92.5685 39.5247 92.5019 39.4582C92.4353 39.3916 92.3979 39.3013 92.3979 39.2072V34.3267C92.3979 34.2326 92.4353 34.1423 92.5019 34.0758C92.5685 34.0092 92.6588 33.9718 92.7529 33.9718C92.847 33.9718 92.9373 34.0092 93.0039 34.0758C93.0704 34.1423 93.1078 34.2326 93.1078 34.3267V39.2072C93.1078 39.3013 93.0704 39.3916 93.0039 39.4582C92.9373 39.5247 92.847 39.5621 92.7529 39.5621Z" fill="#F8F9FA"/>
<path d="M55.2001 29.8722H55.1113C55.0214 29.8435 54.9458 29.7817 54.8997 29.6994C54.8536 29.617 54.8404 29.5202 54.8629 29.4286C56.6021 23.4478 61.0211 20.2001 61.1986 20.0581C61.237 20.0311 61.2803 20.0119 61.3261 20.0017C61.372 19.9915 61.4194 19.9905 61.4656 19.9988C61.5118 20.007 61.5559 20.0243 61.5954 20.0498C61.6348 20.0752 61.6689 20.1082 61.6955 20.1469C61.7235 20.1841 61.7438 20.2266 61.7554 20.2717C61.767 20.3169 61.7695 20.3639 61.7629 20.41C61.7563 20.4562 61.7407 20.5006 61.717 20.5407C61.6932 20.5808 61.6618 20.6158 61.6245 20.6438C61.5713 20.6615 57.2055 23.8915 55.5373 29.6238C55.5204 29.6989 55.477 29.7653 55.4151 29.811C55.3531 29.8566 55.2768 29.8784 55.2001 29.8722Z" fill="#F8F9FA"/>
<path d="M54.3842 35.7465C54.302 35.7449 54.2226 35.7162 54.1584 35.6649C54.0942 35.6135 54.0488 35.5424 54.0293 35.4625C53.7985 34.4761 53.7985 33.4497 54.0293 32.4633C54.0397 32.4178 54.059 32.3749 54.0861 32.3369C54.1132 32.2989 54.1475 32.2666 54.187 32.2419C54.2266 32.2172 54.2706 32.2005 54.3166 32.1928C54.3627 32.1851 54.4097 32.1865 54.4552 32.1971C54.5019 32.2052 54.5463 32.223 54.5857 32.2495C54.625 32.2759 54.6583 32.3104 54.6834 32.3506C54.7085 32.3908 54.7249 32.4358 54.7314 32.4827C54.738 32.5297 54.7346 32.5775 54.7214 32.623C54.5264 33.5056 54.5264 34.4202 54.7214 35.3028C54.7346 35.3483 54.738 35.3961 54.7314 35.4431C54.7249 35.49 54.7085 35.535 54.6834 35.5752C54.6583 35.6154 54.625 35.6499 54.5857 35.6763C54.5463 35.7028 54.5019 35.7206 54.4552 35.7287L54.3842 35.7465Z" fill="#F8F9FA"/>
<path d="M123.811 86.2546C128.816 120.773 115.15 123.08 106.614 116.46C102.443 113.23 99.5684 108.296 98.823 106.504C98.789 106.429 98.7714 106.347 98.7711 106.265C98.7709 106.182 98.7881 106.101 98.8216 106.025C98.8551 105.95 98.9042 105.882 98.9656 105.827C99.027 105.772 99.0993 105.731 99.1779 105.705C100.917 105.12 105.975 103.239 107.874 100.594" fill="#F8F9FA"/>
<path d="M114.245 119.779C111.707 119.779 108.974 118.75 106.383 116.744C101.964 113.301 99.1243 108.172 98.4854 106.646C98.3933 106.399 98.3997 106.126 98.5032 105.883C98.5562 105.765 98.6321 105.659 98.7266 105.57C98.821 105.482 98.9321 105.413 99.0533 105.368C100.597 104.854 105.726 102.972 107.572 100.381C107.628 100.306 107.712 100.256 107.806 100.243C107.899 100.23 107.994 100.254 108.069 100.31C108.107 100.337 108.14 100.371 108.166 100.41C108.191 100.45 108.209 100.494 108.217 100.54C108.225 100.586 108.224 100.634 108.214 100.68C108.204 100.726 108.185 100.769 108.158 100.807C106.241 103.487 101.307 105.368 99.284 106.043C99.224 106.075 99.1747 106.125 99.1421 106.185C99.1243 106.242 99.1243 106.304 99.1421 106.362C99.9229 108.225 102.833 113.088 106.827 116.176C110.82 119.264 114.972 119.885 118.185 118.022C121.397 116.158 126.792 109.273 123.456 86.2901C123.448 86.2444 123.45 86.1977 123.461 86.1528C123.473 86.108 123.493 86.0659 123.521 86.0293C123.55 85.9926 123.585 85.9622 123.626 85.9399C123.666 85.9177 123.711 85.9039 123.757 85.8997C123.804 85.8921 123.852 85.894 123.898 85.9052C123.944 85.9163 123.987 85.9365 124.025 85.9646C124.063 85.9927 124.095 86.0282 124.119 86.0688C124.143 86.1095 124.159 86.1545 124.165 86.2014C125.514 95.5363 125.603 103.132 124.396 108.758C123.349 113.656 121.379 116.975 118.54 118.643C117.23 119.386 115.75 119.778 114.245 119.779Z" fill="#212529"/>
<path d="M137.547 119.424H22.4749V120.134H137.547V119.424Z" fill="#212529"/>
<path d="M123.171 87.3727C123.171 87.3727 128.904 75.145 123.171 74.7545C123.171 74.7545 125.07 68.9335 119.906 69.6789C119.906 69.6789 119.853 61.4442 111.742 63.4851C111.742 63.4851 110.926 67.9929 106.862 65.3841C106.862 65.3841 103.241 59.8825 102.407 65.1179C102.248 66.0762 106.879 69.8563 107.696 71.3648C109.861 75.3934 111.369 83.0956 110.855 91.1351C110.642 94.578 110.358 98.9438 110.429 102.6L123.171 87.3727Z" fill="#F8F9FA"/>
<path d="M112.896 63.0237C115.789 61.7637 114.334 68.8093 111.299 71.0987C111.141 71.2176 110.959 71.3001 110.766 71.34C110.573 71.3799 110.373 71.3762 110.181 71.3294C109.453 71.1341 108.247 69.7499 109.01 67.6202" fill="#F8F9FA"/>
<path d="M110.501 71.7199C110.363 71.7209 110.225 71.703 110.092 71.6666C109.613 71.5424 109.099 71.081 108.779 70.4776C108.46 69.8742 108.282 68.5786 108.673 67.5138C108.68 67.4618 108.699 67.412 108.728 67.3682C108.757 67.3243 108.795 67.2873 108.84 67.26C108.885 67.2327 108.935 67.2157 108.987 67.2103C109.039 67.2048 109.092 67.211 109.142 67.2284C109.191 67.2458 109.236 67.274 109.274 67.311C109.311 67.3479 109.34 67.3927 109.358 67.4421C109.376 67.4914 109.382 67.5442 109.378 67.5965C109.373 67.6488 109.356 67.6994 109.329 67.7445C108.939 68.8626 109.152 69.679 109.4 70.1581C109.649 70.6373 110.021 70.9213 110.27 70.9745C110.409 71.0097 110.555 71.0136 110.696 70.986C110.837 70.9583 110.97 70.8999 111.086 70.8148C113.358 69.0933 114.636 64.692 113.908 63.4675C113.837 63.361 113.677 63.0771 113.038 63.3433C112.957 63.3634 112.872 63.3544 112.797 63.3178C112.722 63.2812 112.662 63.2193 112.628 63.143C112.594 63.0667 112.588 62.9809 112.612 62.9007C112.635 62.8205 112.685 62.751 112.755 62.7044C113.855 62.2252 114.369 62.8286 114.529 63.1126C115.47 64.7275 113.979 69.5192 111.512 71.3827C111.222 71.6039 110.866 71.7225 110.501 71.7199Z" fill="#212529"/>
<path d="M117.049 66.3779C121.308 64.8339 117.688 74.5948 113.748 75.6596C113.748 75.6596 111.761 75.8726 111.814 73.5655" fill="#F8F9FA"/>
<path d="M113.623 76.0146C113.077 76.0299 112.546 75.8399 112.133 75.4822C111.671 75.0562 111.441 74.3996 111.458 73.5655C111.458 73.4714 111.496 73.3811 111.562 73.3145C111.629 73.2479 111.719 73.2105 111.813 73.2105H111.831C111.924 73.2194 112.01 73.2625 112.072 73.3315C112.134 73.4005 112.169 73.4902 112.168 73.5832C112.15 74.2044 112.31 74.6658 112.612 74.9498C112.909 75.199 113.29 75.3259 113.677 75.3047C115.735 74.719 117.83 71.4713 118.451 68.8803C118.699 67.8332 118.646 67.0168 118.309 66.7151C117.972 66.4134 117.528 66.5731 117.155 66.7151C117.066 66.7457 116.968 66.7395 116.883 66.6979C116.798 66.6563 116.733 66.5827 116.703 66.4933C116.672 66.4039 116.678 66.3059 116.72 66.2211C116.761 66.1362 116.835 66.0713 116.924 66.0407C117.723 65.7568 118.344 65.81 118.788 66.1827C119.232 66.5554 119.462 67.6735 119.143 69.04C118.557 71.5246 116.392 75.3047 113.836 75.9968H113.623V76.0146Z" fill="#212529"/>
<path d="M121.006 70.5485C125.035 69.7677 122.248 79.3333 116.232 79.777C116.232 79.777 113.57 79.8657 113.872 77.4344" fill="#F8F9FA"/>
<path d="M116.215 80.1319C115.949 80.1319 114.742 80.0786 114.032 79.2977C113.588 78.8186 113.429 78.1797 113.517 77.3988C113.522 77.3521 113.536 77.3068 113.558 77.2654C113.58 77.224 113.61 77.1874 113.646 77.1577C113.682 77.128 113.724 77.1057 113.769 77.0923C113.814 77.0789 113.861 77.0745 113.908 77.0794C114.002 77.0965 114.086 77.1476 114.145 77.2228C114.204 77.298 114.233 77.3922 114.227 77.4876C114.156 78.0555 114.263 78.4991 114.547 78.8186C115.115 79.4397 116.215 79.422 116.215 79.422C119.072 79.209 121.095 76.7954 121.965 74.79C122.622 73.2637 122.728 71.8262 122.231 71.1873C121.983 70.8856 121.592 70.7969 121.06 70.9034C120.968 70.919 120.874 70.8979 120.798 70.8448C120.722 70.7917 120.669 70.7108 120.652 70.6194C120.636 70.5256 120.656 70.4292 120.709 70.35C120.762 70.2708 120.843 70.2148 120.936 70.1935C121.93 69.9983 122.497 70.3887 122.781 70.7437C123.474 71.5955 123.403 73.2637 122.622 75.0739C121.628 77.3633 119.427 79.9012 116.251 80.1319H116.215Z" fill="#212529"/>
<path d="M111.228 64.9404L102.212 52.9789L98.5742 56.7413L108.761 67.3895C108.846 67.4731 108.951 67.5334 109.066 67.5645C109.181 67.5956 109.302 67.5964 109.418 67.567C109.897 67.425 110.731 66.9991 111.317 65.597C111.36 65.4892 111.374 65.3721 111.358 65.2571C111.343 65.142 111.298 65.033 111.228 64.9404Z" fill="#F8F9FA"/>
<path d="M109.24 67.9397C109.103 67.9405 108.967 67.9124 108.842 67.8574C108.717 67.8024 108.604 67.7216 108.512 67.6203L98.0946 56.7413L102.247 52.4288L111.511 64.7275C111.619 64.8665 111.689 65.0313 111.714 65.2056C111.739 65.3799 111.718 65.5576 111.653 65.7213C110.997 67.3008 110.021 67.7622 109.506 67.9042C109.42 67.9333 109.33 67.9454 109.24 67.9397ZM99.0707 56.7413L109.027 67.1411C109.064 67.1766 109.109 67.2031 109.158 67.2185C109.208 67.2339 109.26 67.2377 109.311 67.2298C109.719 67.1233 110.447 66.7507 110.997 65.4551C111.016 65.4047 111.021 65.3501 111.011 65.297C111.002 65.244 110.978 65.1944 110.943 65.1534L102.176 53.5113L99.0707 56.7413Z" fill="#212529"/>
<path d="M59.1405 35.0899C57.2416 36.3145 56.6382 37.0421 56.8867 39.296C57.0464 40.6093 58.0757 42.8987 59.1405 43.6795C60.2054 44.4604 60.9862 44.4427 61.4122 44.8508C62.4238 45.8269 62.477 46.874 62.6012 47.9388C62.9207 50.6009 65.3875 52.2691 67.6946 53.6534C71.3683 55.854 76.4972 55.2506 79.5674 52.2691C81.3066 50.5831 82.8151 48.5245 83.454 46.1819C84.2349 43.2891 87.1454 41.0707 87.2164 40.9642C87.9973 39.5977 88.3522 38.5151 88.1747 36.9356C87.944 34.877 85.0335 33.1023 83.3653 31.8777C79.4964 29.0027 76.5327 25.9857 72.9123 22.4185C72.7784 22.2894 72.6183 22.1907 72.4429 22.1289C72.2675 22.0672 72.0808 22.044 71.8956 22.0608C71.7104 22.0776 71.531 22.1342 71.3695 22.2265C71.2081 22.3189 71.0685 22.4449 70.9601 22.596C68.3868 26.1277 68.1383 29.0027 61.4122 32.9071" fill="#F8F9FA"/>
<path d="M72.5392 55.2506H72.4327C66.7537 55.1973 63.9674 51.7544 62.6186 48.8794C61.7201 46.9039 61.1908 44.7807 61.0569 42.6146C61.0545 42.5689 61.0614 42.5231 61.0772 42.4801C61.0931 42.4372 61.1176 42.3979 61.1491 42.3646C61.1807 42.3314 61.2187 42.305 61.2608 42.287C61.3029 42.2689 61.3482 42.2596 61.3941 42.2597H61.4118C61.4576 42.2573 61.5033 42.2642 61.5463 42.2801C61.5893 42.2959 61.6286 42.3204 61.6618 42.352C61.695 42.3835 61.7214 42.4215 61.7395 42.4636C61.7575 42.5057 61.7668 42.5511 61.7667 42.5969C61.9083 44.6703 62.4191 46.7017 63.2752 48.5954C65.1032 52.4998 68.1912 54.5052 72.4327 54.5407H72.557C77.0647 54.5407 80.3479 52.1981 82.3001 47.5661C83.7731 44.0522 83.8796 40.485 83.8973 40.4495C83.8869 40.3973 83.8884 40.3433 83.9016 40.2917C83.9149 40.2401 83.9396 40.1922 83.9739 40.1514C84.0082 40.1107 84.0512 40.0782 84.0998 40.0563C84.1484 40.0345 84.2013 40.0238 84.2545 40.0252C84.3078 40.0266 84.36 40.0399 84.4074 40.0642C84.4548 40.0885 84.4961 40.1232 84.5283 40.1657C84.5605 40.2081 84.5827 40.2573 84.5933 40.3095C84.6039 40.3617 84.6026 40.4156 84.5895 40.4672C84.4652 43.0026 83.9132 45.4987 82.9567 47.85C80.9158 52.695 77.3132 55.2506 72.5392 55.2506Z" fill="#212529"/>
<path d="M61.1814 44.8508C60.23 44.8471 59.3066 44.5289 58.5548 43.9457C57.4545 43.0584 56.7801 41.6386 56.5672 39.7219C56.23 36.6872 57.1173 36.0128 57.9159 35.4094C58.7146 34.806 58.9808 34.593 58.821 32.9426C58.8157 32.8493 58.8455 32.7574 58.9047 32.6851C58.9638 32.6128 59.048 32.5653 59.1405 32.5521C59.1871 32.5472 59.2343 32.5516 59.2793 32.565C59.3242 32.5785 59.366 32.6007 59.4023 32.6304C59.4386 32.6601 59.4687 32.6967 59.4908 32.7381C59.5128 32.7795 59.5265 32.8249 59.5309 32.8716C59.7261 34.9125 58.9808 35.4804 58.3419 35.9773C57.703 36.4742 56.9931 37.0066 57.277 39.6332C57.8095 44.4781 61.2346 44.1587 61.3766 44.141C61.4223 44.1334 61.469 44.1354 61.5139 44.1468C61.5588 44.1581 61.6008 44.1786 61.6375 44.2069C61.6741 44.2352 61.7045 44.2707 61.7268 44.3113C61.7491 44.3518 61.7628 44.3966 61.7671 44.4427C61.772 44.4893 61.7676 44.5365 61.7541 44.5814C61.7407 44.6264 61.7185 44.6682 61.6888 44.7045C61.6591 44.7408 61.6225 44.7709 61.5811 44.7929C61.5397 44.815 61.4943 44.8287 61.4476 44.8331L61.1814 44.8508Z" fill="#212529"/>
<path d="M66.3458 39.4202C66.7771 39.4202 67.1267 38.8878 67.1267 38.2311C67.1267 37.5744 66.7771 37.0421 66.3458 37.0421C65.9145 37.0421 65.5649 37.5744 65.5649 38.2311C65.5649 38.8878 65.9145 39.4202 66.3458 39.4202Z" fill="#212529"/>
<path d="M64.3759 35.8353C64.2783 35.8314 64.1846 35.7966 64.108 35.736C64.0315 35.6754 63.9761 35.5921 63.9499 35.4981C63.9339 35.441 63.9295 35.3812 63.937 35.3224C63.9445 35.2636 63.9637 35.2068 63.9935 35.1555C64.0232 35.1042 64.063 35.0594 64.1104 35.0238C64.1578 34.9881 64.2119 34.9623 64.2694 34.9479L68.1915 33.9186C68.2463 33.9025 68.3037 33.8976 68.3604 33.9041C68.4171 33.9107 68.4719 33.9285 68.5216 33.9567C68.5713 33.9848 68.6148 34.0227 68.6495 34.0679C68.6843 34.1132 68.7096 34.165 68.7239 34.2203C68.7569 34.3333 68.7436 34.4547 68.687 34.5579C68.6304 34.661 68.5352 34.7375 68.4222 34.7705L64.5001 35.8175L64.3759 35.8353Z" fill="#212529"/>
<path d="M70.7827 44.8508H70.7649C69.984 44.7798 69.4871 44.5136 69.3097 44.0344C68.9192 43.0228 70.2503 41.5853 70.5342 41.3191C70.5982 41.2516 70.6861 41.212 70.779 41.2087C70.872 41.2053 70.9625 41.2386 71.0311 41.3013C71.0973 41.3707 71.1342 41.4628 71.1342 41.5587C71.1342 41.6545 71.0973 41.7467 71.0311 41.816C70.5165 42.3484 69.8066 43.36 69.984 43.7859C70.1615 44.2119 70.5342 44.1231 70.8004 44.1409C70.8478 44.1406 70.8948 44.1504 70.9382 44.1695C70.9816 44.1886 71.0205 44.2167 71.0523 44.2518C71.0841 44.287 71.1082 44.3285 71.1229 44.3736C71.1376 44.4187 71.1426 44.4664 71.1376 44.5136C71.1291 44.6031 71.0885 44.6866 71.0233 44.7486C70.958 44.8106 70.8726 44.8469 70.7827 44.8508Z" fill="#212529"/>
<path d="M91.9899 58.6579C102.174 58.6579 110.429 50.4024 110.429 40.2187C110.429 30.0351 102.174 21.7795 91.9899 21.7795C81.8062 21.7795 73.5507 30.0351 73.5507 40.2187C73.5507 50.4024 81.8062 58.6579 91.9899 58.6579Z" fill="#F8F9FA"/>
<path d="M91.9899 59.0307C81.6257 59.0307 73.1958 50.5831 73.1958 40.2188C73.1958 35.2343 75.1759 30.4539 78.7005 26.9293C82.2251 23.4047 87.0054 21.4246 91.9899 21.4246C96.9745 21.4246 101.755 23.4047 105.279 26.9293C108.804 30.4539 110.784 35.2343 110.784 40.2188C110.784 50.5831 102.354 59.0307 91.9899 59.0307ZM91.9899 22.1345C87.1951 22.1392 82.5981 24.046 79.2076 27.4365C75.8172 30.8269 73.9104 35.424 73.9057 40.2188C73.9057 50.1926 82.0161 58.3208 91.9899 58.3208C101.964 58.3208 110.074 50.1926 110.074 40.2188C110.07 35.424 108.163 30.8269 104.772 27.4365C101.382 24.046 96.7847 22.1392 91.9899 22.1345Z" fill="#212529"/>
<path d="M91.9902 55.4813C100.233 55.4813 106.916 48.799 106.916 40.556C106.916 32.313 100.233 25.6307 91.9902 25.6307C83.7472 25.6307 77.0649 32.313 77.0649 40.556C77.0649 48.799 83.7472 55.4813 91.9902 55.4813Z" fill="#F8F9FA"/>
<path d="M91.99 55.8362C88.9678 55.8362 86.0135 54.94 83.5007 53.261C80.9879 51.582 79.0294 49.1956 77.8729 46.4035C76.7163 43.6114 76.4137 40.539 77.0033 37.575C77.5929 34.6109 79.0482 31.8882 81.1852 29.7512C83.3222 27.6143 86.0448 26.159 89.0089 25.5694C91.973 24.9798 95.0453 25.2824 97.8374 26.4389C100.63 27.5954 103.016 29.5539 104.695 32.0668C106.374 34.5796 107.27 37.5338 107.27 40.556C107.265 44.6071 105.654 48.491 102.79 51.3556C99.9249 54.2201 96.0411 55.8315 91.99 55.8362ZM91.99 25.9856C89.1082 25.9856 86.2912 26.8402 83.8951 28.4412C81.499 30.0422 79.6315 32.3178 78.5287 34.9802C77.4259 37.6425 77.1374 40.5722 77.6996 43.3985C78.2618 46.2249 79.6495 48.8211 81.6872 50.8588C83.7249 52.8965 86.3211 54.2842 89.1474 54.8464C91.9738 55.4086 94.9034 55.12 97.5658 54.0172C100.228 52.9144 102.504 51.0469 104.105 48.6508C105.706 46.2548 106.56 43.4377 106.56 40.556C106.556 36.6931 105.019 32.9898 102.288 30.2584C99.5561 27.5269 95.8528 25.9903 91.99 25.9856Z" fill="#212529"/>
<path d="M80.5252 39.4557C81.3975 39.4557 82.1047 38.3751 82.1047 37.0421C82.1047 35.7091 81.3975 34.6285 80.5252 34.6285C79.6528 34.6285 78.9457 35.7091 78.9457 37.0421C78.9457 38.3751 79.6528 39.4557 80.5252 39.4557Z" fill="#212529"/>
<path d="M85.1394 53.8307C85.1394 53.8307 95.4327 41.9402 88.6356 26.0033L85.1394 53.8307Z" fill="#F8F9FA"/>
<path d="M85.1396 54.1856C85.0549 54.1832 84.9735 54.1519 84.9089 54.0969C84.8389 54.0353 84.796 53.9487 84.7894 53.8557C84.7827 53.7627 84.8129 53.6709 84.8734 53.6C84.8912 53.5645 87.429 50.6007 89.115 45.738C90.659 41.2835 91.777 34.2557 88.3164 26.1453C88.2801 26.0604 88.2784 25.9647 88.3115 25.8786C88.3447 25.7924 88.4101 25.7226 88.4938 25.6838C88.5368 25.6631 88.5835 25.6513 88.6311 25.6491C88.6788 25.6468 88.7264 25.6542 88.7711 25.6708C88.8158 25.6873 88.8568 25.7128 88.8915 25.7455C88.9261 25.7782 88.9539 25.8176 88.973 25.8613C92.5224 34.2024 91.3689 41.4255 89.7716 46.0042C88.0502 50.9734 85.5123 53.9372 85.4058 54.0614C85.3722 54.0991 85.3313 54.1295 85.2855 54.1508C85.2397 54.1722 85.1901 54.184 85.1396 54.1856Z" fill="#212529"/>
<path d="M48.8287 112.875C48.8287 112.875 49.0949 118.288 48.8287 119.779V112.875Z" fill="#F8F9FA"/>
<path d="M48.8297 120.134H48.7764C48.6836 120.113 48.6025 120.057 48.5497 119.977C48.4969 119.898 48.4764 119.802 48.4925 119.708C48.7409 118.27 48.4925 112.946 48.4747 112.893C48.4723 112.847 48.4792 112.802 48.4951 112.759C48.511 112.716 48.5354 112.676 48.567 112.643C48.5985 112.61 48.6365 112.583 48.6786 112.565C48.7207 112.547 48.7661 112.538 48.8119 112.538C48.8591 112.533 48.9068 112.538 48.9519 112.553C48.997 112.568 49.0385 112.592 49.0736 112.623C49.1088 112.655 49.1369 112.694 49.156 112.738C49.1751 112.781 49.1849 112.828 49.1846 112.875C49.2023 113.088 49.4508 118.324 49.1846 119.832C49.1718 119.917 49.1288 119.994 49.0635 120.049C48.9983 120.105 48.9153 120.135 48.8297 120.134Z" fill="#212529"/>
<path d="M69.5223 51.4527C68.8301 51.4527 68.2622 50.7606 68.2622 49.9265C68.2622 49.0924 68.8301 48.3825 69.5223 48.3825C70.2144 48.3825 70.7823 49.0746 70.7823 49.9265C70.7823 50.7784 70.2144 51.4527 69.5223 51.4527ZM69.5223 49.0924C69.2205 49.0924 68.9721 49.4828 68.9721 49.9265C68.9721 50.3702 69.2205 50.7429 69.5223 50.7429C69.824 50.7429 70.0724 50.3702 70.0724 49.9265C70.0724 49.4828 69.824 49.0924 69.5223 49.0924Z" fill="#212529"/>
<path d="M118.362 83.9653C118.077 83.9593 117.793 83.9356 117.51 83.8943C115.966 83.6636 114.99 83.2377 114.6 82.6343C114.522 82.525 114.469 82.4001 114.445 82.2684C114.42 82.1366 114.425 82.001 114.458 81.8711L115.132 82.0664C115.131 82.1088 115.138 82.151 115.153 82.1907C115.169 82.2303 115.192 82.2664 115.221 82.2971C115.399 82.5455 115.931 82.9715 117.599 83.2022L118.345 83.2554C121.486 83.2554 123.935 80.3981 124.538 78.7832C124.685 78.3901 124.715 77.9628 124.624 77.5532C124.532 77.1436 124.324 76.7693 124.024 76.476C123.988 76.4457 123.959 76.4083 123.939 76.3662C123.918 76.3241 123.907 76.2782 123.905 76.2315C123.904 76.1848 123.912 76.1382 123.929 76.0947C123.946 76.0513 123.973 76.0119 124.006 75.9791C124.067 75.9091 124.154 75.8662 124.247 75.8595C124.34 75.8529 124.432 75.8831 124.503 75.9436C124.556 75.9969 125.887 77.2214 125.195 79.0316C124.503 80.8418 121.876 83.9653 118.362 83.9653Z" fill="#212529"/>
<path d="M123.42 86.6629C123.279 86.6692 123.138 86.6386 123.012 86.5741C122.97 86.5534 122.932 86.5245 122.901 86.4891C122.871 86.4537 122.847 86.4125 122.832 86.3679C122.817 86.3233 122.811 86.2763 122.815 86.2294C122.818 86.1825 122.831 86.1368 122.852 86.0949C122.873 86.0525 122.902 86.0148 122.938 85.9843C122.974 85.9538 123.015 85.9311 123.061 85.9177C123.106 85.9044 123.153 85.9006 123.2 85.9067C123.246 85.9127 123.291 85.9285 123.332 85.953C123.508 85.9698 123.686 85.9392 123.846 85.8642C124.645 85.527 125.568 84.6929 125.656 84.4267C125.675 84.3763 125.68 84.3217 125.671 84.2686C125.662 84.2156 125.638 84.166 125.603 84.125L123.474 81.0193C123.447 80.9823 123.428 80.9404 123.418 80.896C123.408 80.8515 123.407 80.8055 123.416 80.7608C123.424 80.716 123.441 80.6733 123.466 80.6354C123.492 80.5975 123.524 80.5651 123.562 80.5401C123.601 80.5131 123.644 80.4939 123.69 80.4837C123.736 80.4735 123.783 80.4725 123.829 80.4807C123.876 80.489 123.92 80.5063 123.959 80.5318C123.999 80.5572 124.033 80.5902 124.059 80.6289L126.189 83.7168C126.281 83.853 126.342 84.0082 126.367 84.171C126.391 84.3338 126.379 84.5 126.331 84.6574C126.136 85.2076 125 86.1659 124.112 86.5209C123.893 86.6137 123.658 86.6619 123.42 86.6629Z" fill="#212529"/>
<path d="M123.172 86.6095C123.117 86.6082 123.063 86.5948 123.014 86.5703C122.965 86.5457 122.922 86.5107 122.888 86.4675L120.705 83.2908C120.678 83.2524 120.659 83.209 120.649 83.1632C120.639 83.1174 120.638 83.0701 120.646 83.024C120.655 82.9778 120.672 82.9338 120.697 82.8943C120.722 82.8548 120.755 82.8207 120.794 82.7939C120.832 82.7671 120.876 82.7481 120.921 82.7381C120.967 82.728 121.014 82.7271 121.061 82.7354C121.107 82.7436 121.151 82.7608 121.19 82.7861C121.23 82.8114 121.264 82.8442 121.291 82.8826L123.474 86.0594C123.5 86.0988 123.518 86.1431 123.527 86.1896C123.535 86.2361 123.535 86.284 123.525 86.3303C123.515 86.3766 123.496 86.4204 123.469 86.4592C123.442 86.4981 123.407 86.5311 123.367 86.5563C123.309 86.5926 123.241 86.6111 123.172 86.6095Z" fill="#212529"/>
<path d="M92.0967 128.422C96.3702 128.422 99.8345 124.997 99.8345 120.773C99.8345 116.548 96.3702 113.124 92.0967 113.124C87.8233 113.124 84.359 116.548 84.359 120.773C84.359 124.997 87.8233 128.422 92.0967 128.422Z" fill="#F8F9FA"/>
<path d="M92.1854 128.777H91.6175L88.3521 128.386L90.9786 128.067V127.978L91.2803 128.013C93.0415 127.792 94.6606 126.933 95.8313 125.599C97.002 124.265 97.6433 122.548 97.6338 120.773C97.6338 116.975 95.1492 114.011 91.5998 113.585L88.6892 113.248L91.5998 112.893L91.7417 112.84C91.878 112.789 92.0225 112.765 92.1677 112.769C93.2981 112.766 94.4163 113.003 95.4486 113.464C96.4809 113.925 97.4038 114.599 98.1566 115.443C98.9094 116.286 99.4751 117.279 99.8163 118.357C100.157 119.435 100.266 120.573 100.136 121.696C99.9024 123.642 98.9652 125.437 97.5009 126.741C96.0366 128.045 94.1462 128.769 92.1854 128.777ZM94.7587 113.958C96.9594 115.324 98.3436 117.809 98.3436 120.773C98.3462 122.192 97.9733 123.586 97.2626 124.814C96.5519 126.042 95.5288 127.06 94.2973 127.765C95.1809 127.487 96.0053 127.048 96.7287 126.469C97.4787 125.879 98.1036 125.144 98.5668 124.31C99.0299 123.475 99.3221 122.556 99.4262 121.607C99.5474 120.583 99.4486 119.545 99.1364 118.563C98.8242 117.58 98.3059 116.676 97.616 115.91C96.8295 115.045 95.8508 114.376 94.7587 113.958Z" fill="#212529"/>
<path d="M91.7241 128.741H91.2982C87.2696 128.741 84.0042 125.156 84.0042 120.773C84.0042 116.389 87.2164 112.769 91.174 112.769C91.4647 112.769 91.7551 112.787 92.0436 112.822C95.6285 113.319 98.3438 116.726 98.3438 120.773C98.3438 124.819 95.6285 128.244 92.0436 128.723L91.7241 128.741ZM91.174 113.479C87.6068 113.479 84.714 116.762 84.714 120.773C84.714 124.784 87.6778 128.031 91.2982 128.031H91.5644C91.6888 128.043 91.8143 128.037 91.9371 128.014C95.1848 127.588 97.6339 124.464 97.6339 120.773C97.6339 117.081 95.1848 113.976 91.9371 113.532C91.6843 113.497 91.4293 113.479 91.174 113.479Z" fill="#212529"/>
<path d="M91.1736 126.647C88.2631 126.647 85.9027 124.02 85.9027 120.773C85.9027 117.525 88.2631 114.916 91.1736 114.916L91.8125 114.952C94.439 115.307 96.4267 117.809 96.4267 120.773C96.4267 123.736 94.439 126.239 91.8125 126.594C91.6013 126.629 91.3877 126.647 91.1736 126.647ZM91.1736 115.626C88.6535 115.626 86.6126 117.933 86.6126 120.773C86.6126 123.612 88.6535 125.937 91.1736 125.937L91.706 125.902C93.9954 125.582 95.7168 123.381 95.7168 120.773C95.7168 118.164 93.9954 115.963 91.706 115.662C91.5302 115.632 91.3518 115.62 91.1736 115.626Z" fill="#212529"/>
<path d="M98.5924 117.17H96.9952C96.9011 117.17 96.8108 117.133 96.7442 117.066C96.6776 117 96.6403 116.909 96.6403 116.815C96.6403 116.721 96.6776 116.631 96.7442 116.564C96.8108 116.498 96.9011 116.46 96.9952 116.46H98.5924C98.6866 116.46 98.7768 116.498 98.8434 116.564C98.91 116.631 98.9474 116.721 98.9474 116.815C98.9474 116.909 98.91 117 98.8434 117.066C98.7768 117.133 98.6866 117.17 98.5924 117.17Z" fill="#212529"/>
<path d="M99.2134 118.98H97.7049C97.6108 118.98 97.5205 118.943 97.4539 118.876C97.3874 118.81 97.35 118.719 97.35 118.625C97.35 118.531 97.3874 118.441 97.4539 118.374C97.5205 118.308 97.6108 118.27 97.7049 118.27H99.2134C99.3076 118.27 99.3978 118.308 99.4644 118.374C99.531 118.441 99.5684 118.531 99.5684 118.625C99.5684 118.719 99.531 118.81 99.4644 118.876C99.3978 118.943 99.3076 118.98 99.2134 118.98Z" fill="#212529"/>
<path d="M99.8166 121.429H97.9886C97.8945 121.429 97.8042 121.392 97.7376 121.325C97.6711 121.259 97.6337 121.169 97.6337 121.074C97.6337 120.98 97.6711 120.89 97.7376 120.823C97.8042 120.757 97.8945 120.719 97.9886 120.719H99.8166C99.9107 120.719 100.001 120.757 100.068 120.823C100.134 120.89 100.171 120.98 100.171 121.074C100.171 121.169 100.134 121.259 100.068 121.325C100.001 121.392 99.9107 121.429 99.8166 121.429Z" fill="#212529"/>
<path d="M99.1065 123.985H97.4915C97.3974 123.985 97.3071 123.948 97.2406 123.881C97.174 123.814 97.1366 123.724 97.1366 123.63C97.1366 123.536 97.174 123.446 97.2406 123.379C97.3071 123.312 97.3974 123.275 97.4915 123.275H99.1065C99.2007 123.275 99.2909 123.312 99.3575 123.379C99.4241 123.446 99.4615 123.536 99.4615 123.63C99.4615 123.724 99.4241 123.814 99.3575 123.881C99.2909 123.948 99.2007 123.985 99.1065 123.985Z" fill="#212529"/>
<path d="M97.4916 126.611H95.9299C95.8358 126.611 95.7455 126.574 95.6789 126.508C95.6123 126.441 95.575 126.351 95.575 126.257C95.575 126.162 95.6123 126.072 95.6789 126.006C95.7455 125.939 95.8358 125.902 95.9299 125.902H97.4916C97.5858 125.902 97.676 125.939 97.7426 126.006C97.8092 126.072 97.8466 126.162 97.8466 126.257C97.8466 126.351 97.8092 126.441 97.7426 126.508C97.676 126.574 97.5858 126.611 97.4916 126.611Z" fill="#212529"/>
<path d="M91.7415 124.375C91.2026 124.384 90.6746 124.223 90.233 123.914C89.3811 123.275 88.9552 121.997 88.9552 120.134C88.9729 118.537 89.3456 117.614 90.091 117.294C91.2446 116.797 92.7176 118.128 92.8773 118.27C92.9448 118.334 92.9844 118.422 92.9877 118.515C92.991 118.608 92.9578 118.699 92.895 118.767C92.8647 118.803 92.8273 118.832 92.7852 118.852C92.7431 118.872 92.6972 118.884 92.6505 118.885C92.6038 118.887 92.5572 118.879 92.5137 118.862C92.4703 118.844 92.4309 118.818 92.3981 118.785C92.0609 118.483 90.9961 117.685 90.375 117.951C89.7538 118.217 89.6828 118.909 89.6651 120.134C89.6651 121.767 89.9845 122.849 90.6589 123.328C91.3333 123.807 92.3804 123.63 93.0725 123.417C93.1167 123.401 93.1638 123.394 93.2108 123.397C93.2579 123.399 93.3038 123.412 93.3456 123.434C93.3874 123.456 93.4241 123.486 93.4535 123.523C93.4829 123.56 93.5043 123.602 93.5162 123.648C93.5326 123.692 93.5396 123.739 93.5367 123.786C93.5338 123.833 93.521 123.879 93.4993 123.921C93.4775 123.963 93.4473 123.999 93.4105 124.029C93.3736 124.058 93.3311 124.079 93.2855 124.091C92.789 124.267 92.2679 124.363 91.7415 124.375Z" fill="#212529"/>
<path d="M63.4353 108.279C63.4353 108.279 47.0015 110.746 47.5339 113.674C48.0663 116.602 49.2199 118.519 47.6582 121.749C46.8773 123.364 45.1736 125.44 44.7121 127.801C44.2507 130.161 45.2623 132.947 47.5339 134.828C52.0949 138.609 51.9707 141.555 73.1429 134.828C73.1429 134.828 80.6677 132.912 77.4377 126.665C74.2078 120.418 72.7525 123.311 75.663 114.898C75.663 114.898 76.9941 111.42 72.8058 111.988C72.8058 111.988 69.4693 112.13 68.4755 110.55C67.4816 108.971 66.7717 106.575 63.4353 108.279Z" fill="#F8F9FA"/>
<path d="M53.0356 124.446C53.0356 124.446 55.8041 117.756 57.8805 117.17C59.9569 116.584 72.7881 112.893 73.6044 113.816C74.4208 114.739 73.2495 120.861 71.528 121.216C69.8066 121.571 58.0048 125.263 58.8211 126.186C59.6375 127.108 71.8652 123.878 73.0188 124.571C74.1723 125.263 77.2426 129.078 73.8706 133.107C70.4987 137.136 54.7748 139.993 53.3905 138.839C52.0062 137.686 46.2207 131.261 46.6821 129.309C47.1436 127.357 46.0965 125.174 48.1906 126.132C50.2848 127.091 51.7933 127.126 53.0356 124.446Z" fill="#212529"/>
<path d="M55.5733 139.389C53.4081 139.389 51.3672 139.052 50.2492 137.987C46.0076 133.977 42.6712 130.818 44.9783 125.99C47.1434 121.447 48.3325 119.335 48.3502 119.3C48.3722 119.259 48.4025 119.223 48.439 119.194C48.4756 119.165 48.5177 119.145 48.5627 119.133C48.6077 119.121 48.6546 119.119 48.7005 119.126C48.7464 119.134 48.7903 119.15 48.8294 119.176C48.9115 119.221 48.9724 119.296 48.999 119.386C49.0256 119.476 49.0157 119.572 48.9714 119.655C48.9536 119.672 47.7823 121.784 45.6172 126.292C43.452 130.8 46.5578 133.515 50.7461 137.473C52.1659 138.822 56.017 139.052 61.2878 138.076C68.5819 136.745 76.4438 133.533 77.4377 131.456C78.7865 128.706 76.852 126.15 75.2903 124.109C74.8617 123.571 74.4647 123.008 74.1012 122.423C73.4091 121.234 74.0657 119.087 74.7046 116.993C75.2725 115.182 75.9114 113.106 75.2015 112.609C73.8173 111.615 65.3697 113.496 61.3056 114.402L59.2292 114.845C55.6265 115.608 52.3433 121.784 52.3078 121.838C52.2927 121.887 52.2668 121.933 52.232 121.972C52.1973 122.01 52.1544 122.041 52.1065 122.061C52.0587 122.081 52.0069 122.091 51.955 122.089C51.903 122.087 51.8522 122.074 51.8059 122.05C51.7597 122.026 51.7193 121.992 51.6875 121.951C51.6557 121.91 51.6333 121.863 51.6219 121.812C51.6106 121.761 51.6105 121.709 51.6217 121.658C51.6328 121.607 51.655 121.559 51.6867 121.518C51.8287 121.252 55.1474 114.987 59.0872 114.153L61.1459 113.709C67.6413 112.254 74.1012 110.941 75.6097 112.023C76.7278 112.822 76.0712 114.952 75.379 117.206C74.8111 119.051 74.1722 121.145 74.7224 122.068C75.0661 122.63 75.4455 123.17 75.8582 123.683C77.4377 125.76 79.6028 128.617 78.0766 131.758C76.8343 134.332 68.2979 137.526 61.4121 138.786C59.8326 139.07 57.6497 139.389 55.5733 139.389Z" fill="#212529"/>
<path d="M49.7523 122.494C49.6822 122.492 49.6138 122.472 49.5545 122.434C49.4951 122.397 49.447 122.344 49.4151 122.281C49.0779 121.429 46.0964 113.993 48.4568 112.378C50.8171 110.763 62.7609 108.208 63.5595 108.527C63.6042 108.543 63.6452 108.568 63.6802 108.6C63.7152 108.632 63.7434 108.67 63.7633 108.713C63.7831 108.756 63.7942 108.803 63.7958 108.85C63.7973 108.897 63.7894 108.945 63.7725 108.989C63.7318 109.068 63.6664 109.131 63.5864 109.17C63.5063 109.208 63.4159 109.219 63.3288 109.202C62.5125 109.113 50.9769 111.491 48.865 112.964C47.4452 113.94 48.8472 119.016 50.0718 121.997C50.0922 122.039 50.1038 122.084 50.1058 122.131C50.1079 122.177 50.1004 122.223 50.0837 122.267C50.067 122.31 50.0416 122.349 50.009 122.383C49.9764 122.416 49.9374 122.442 49.8943 122.459L49.7523 122.494Z" fill="#212529"/>
<path d="M59.9565 107.942C58.7142 107.942 57.4364 107.64 56.6733 106.646C56.6168 106.571 56.5926 106.476 56.6059 106.383C56.6192 106.29 56.669 106.206 56.7443 106.149C56.7806 106.119 56.8229 106.096 56.8684 106.083C56.9139 106.07 56.9617 106.067 57.0086 106.074C57.0555 106.08 57.1004 106.097 57.1405 106.122C57.1806 106.147 57.2149 106.181 57.2412 106.22C58.7674 108.208 63.2752 106.646 63.3107 106.628C63.3549 106.611 63.4021 106.603 63.4494 106.605C63.4968 106.607 63.5433 106.618 63.5863 106.637C63.6293 106.657 63.6679 106.686 63.6998 106.721C63.7317 106.756 63.7563 106.797 63.7721 106.841C63.8016 106.931 63.796 107.028 63.7565 107.114C63.717 107.199 63.6464 107.267 63.5591 107.303C63.4349 107.338 61.7312 107.942 59.9565 107.942Z" fill="#212529"/>
<path d="M57.7031 114.029C57.6174 114.032 57.5334 114.005 57.4666 113.951C57.3998 113.897 57.3546 113.821 57.3394 113.737C57.3243 113.653 57.3402 113.566 57.3842 113.492C57.4282 113.418 57.4974 113.363 57.5789 113.337C59.3713 112.68 63.6661 111.189 64.5712 111.669H64.6244C64.9084 111.544 65.2633 110.621 65.4408 109.823C65.462 109.735 65.5161 109.658 65.592 109.609C65.6679 109.559 65.7598 109.541 65.849 109.557C65.9418 109.578 66.0229 109.634 66.0757 109.713C66.1285 109.792 66.149 109.889 66.1329 109.983C66.0619 110.302 65.6715 111.97 64.9261 112.307C64.8184 112.362 64.6987 112.389 64.5778 112.386C64.457 112.383 64.3388 112.35 64.234 112.29C63.7548 112.077 60.5249 113.017 57.8096 114.011L57.7031 114.029Z" fill="#212529"/>
<path d="M50.2135 125.831C51.2328 125.831 52.0592 125.004 52.0592 123.985C52.0592 122.966 51.2328 122.139 50.2135 122.139C49.1941 122.139 48.3678 122.966 48.3678 123.985C48.3678 125.004 49.1941 125.831 50.2135 125.831Z" fill="#212529"/>
<path d="M56.3011 107.001C57.3205 107.001 58.1468 106.175 58.1468 105.155C58.1468 104.136 57.3205 103.31 56.3011 103.31C55.2818 103.31 54.4554 104.136 54.4554 105.155C54.4554 106.175 55.2818 107.001 56.3011 107.001Z" fill="#212529"/>
<path d="M65.7773 110.124C66.7967 110.124 67.623 109.298 67.623 108.279C67.623 107.259 66.7967 106.433 65.7773 106.433C64.758 106.433 63.9316 107.259 63.9316 108.279C63.9316 109.298 64.758 110.124 65.7773 110.124Z" fill="#212529"/>
<path d="M62.5296 142.211L62.1569 141.785C61.8566 141.352 61.6454 140.863 61.5357 140.348C61.1276 138.378 62.1569 136 64.3043 134.456C66.4517 132.912 69.4332 132.592 71.1547 133.87C71.4538 134.095 71.717 134.365 71.9355 134.669C72.0507 134.815 72.1462 134.976 72.2195 135.148C73.302 137.224 72.2905 140.17 69.8059 141.998C67.3213 143.826 64.1801 143.862 62.5296 142.211Z" fill="#F8F9FA"/>
<path d="M65.7065 143.755C64.3755 143.755 63.151 143.329 62.2814 142.46C62.136 142.314 61.9997 142.16 61.8732 141.998C61.5864 141.587 61.3705 141.132 61.2343 140.65C61.2122 140.564 61.2174 140.473 61.2492 140.39C61.281 140.308 61.3378 140.237 61.4117 140.188C61.4823 140.133 61.5682 140.102 61.6573 140.099C61.7465 140.096 61.8344 140.121 61.9087 140.17C63.5591 141.253 66.1325 140.987 68.1734 139.496C70.2143 138.005 71.2081 135.822 70.7999 133.941L70.6047 133.036L71.3678 133.586C71.695 133.83 71.9823 134.124 72.2197 134.456C72.3391 134.625 72.4459 134.803 72.5392 134.988C73.7105 137.242 72.6101 140.383 70.0013 142.282C68.7589 143.21 67.2569 143.725 65.7065 143.755ZM62.1749 141.129C62.2636 141.271 62.3523 141.43 62.4588 141.572C62.5555 141.71 62.6623 141.841 62.7783 141.963C64.34 143.507 67.2683 143.4 69.5931 141.714C71.918 140.011 72.9118 137.26 71.918 135.308C71.8293 135.166 71.7583 135.024 71.6518 134.864L71.5986 134.811C71.5808 136.692 70.4628 138.715 68.5993 140.064C66.7359 141.413 64.0383 141.927 62.1749 141.129Z" fill="#212529"/>
<path d="M64.287 141.555C63.2248 141.579 62.1839 141.255 61.3233 140.632L61.2168 140.543L61.1813 140.419C60.7376 138.271 61.9089 135.751 64.0918 134.154C66.2747 132.557 69.4692 132.184 71.3681 133.586L71.4746 133.675V133.799C71.936 135.946 70.7647 138.467 68.5818 140.064C67.2508 141.04 65.7068 141.555 64.287 141.555ZM61.8557 140.135C63.5062 141.271 66.0795 141.022 68.1736 139.496C70.1081 138.094 71.1552 135.929 70.8357 134.083C69.1852 132.947 66.6119 133.213 64.5 134.74C62.3881 136.266 61.5362 138.289 61.8557 140.135Z" fill="#212529"/>
<path d="M71.2969 139.23C71.2289 139.228 71.1626 139.208 71.1059 139.17C71.0493 139.132 71.0047 139.079 70.9775 139.017L70.2321 137.455C70.1921 137.368 70.1883 137.268 70.2216 137.179C70.2549 137.089 70.3225 137.016 70.4096 136.976C70.4966 136.936 70.596 136.932 70.6859 136.965C70.7758 136.999 70.8487 137.066 70.8887 137.153L71.6164 138.715C71.6534 138.802 71.6557 138.901 71.6227 138.99C71.5897 139.079 71.524 139.152 71.4389 139.194L71.2969 139.23Z" fill="#212529"/>
<path d="M69.5404 140.738C69.4772 140.735 69.416 140.716 69.363 140.682C69.3099 140.647 69.267 140.599 69.2387 140.543L68.653 139.496C68.6282 139.454 68.6122 139.408 68.606 139.36C68.5997 139.312 68.6034 139.263 68.6167 139.217C68.63 139.17 68.6527 139.127 68.6833 139.089C68.714 139.052 68.752 139.021 68.795 138.999C68.8782 138.959 68.9734 138.951 69.0619 138.978C69.1504 139.004 69.2261 139.062 69.2742 139.141L69.8598 140.206C69.9041 140.288 69.914 140.385 69.8874 140.475C69.8609 140.564 69.7999 140.64 69.7178 140.685C69.6657 140.721 69.6036 140.739 69.5404 140.738Z" fill="#212529"/>
<path d="M66.4342 142.619C66.3676 142.622 66.3018 142.605 66.2449 142.57C66.188 142.535 66.1428 142.485 66.1148 142.424L65.4581 141.164C65.4158 141.079 65.4088 140.981 65.4387 140.891C65.4687 140.802 65.5331 140.727 65.6178 140.685C65.7026 140.643 65.8006 140.636 65.8905 140.666C65.9804 140.695 66.0547 140.76 66.097 140.845L66.7359 142.105C66.7802 142.187 66.7901 142.284 66.7635 142.373C66.737 142.463 66.676 142.539 66.5939 142.584L66.4342 142.619Z" fill="#212529"/>
<path d="M63.5772 140.064C63.2933 140.064 62.7964 139.939 62.6189 139.514C62.4414 139.088 62.9206 137.81 64.4646 136.284C66.0086 134.757 67.3041 134.03 68.3334 134.118C68.5299 134.126 68.7226 134.175 68.8996 134.26C69.0767 134.346 69.2343 134.467 69.3628 134.615C69.413 134.694 69.4318 134.789 69.4153 134.881C69.3989 134.973 69.3485 135.056 69.274 135.112C69.2 135.163 69.1094 135.184 69.0205 135.171C68.9315 135.158 68.8509 135.112 68.7949 135.041C68.6464 134.901 68.4489 134.825 68.2447 134.828C67.7833 134.793 66.754 135.024 64.9615 136.781C63.169 138.537 63.24 139.176 63.2755 139.23C63.311 139.283 63.524 139.354 63.5772 139.354H63.595C63.6849 139.358 63.7703 139.394 63.8356 139.456C63.9008 139.518 63.9414 139.601 63.9499 139.691C63.946 139.786 63.9078 139.876 63.8425 139.944C63.7773 140.013 63.6893 140.055 63.595 140.064H63.5772Z" fill="#212529"/>
<path d="M119.977 141.058C119.983 140.791 119.971 140.524 119.942 140.259C119.87 139.51 119.627 138.787 119.232 138.147C117.794 135.698 114.422 134.19 110.695 134.598C106.667 135.024 103.525 137.561 102.94 140.543C102.842 141.064 102.824 141.596 102.887 142.122C102.907 142.387 102.954 142.649 103.029 142.903C103.898 146.116 107.767 148.263 112.133 147.784C116.499 147.305 119.817 144.394 119.977 141.058Z" fill="#F8F9FA"/>
<path d="M110.926 148.21C106.951 148.21 103.526 146.098 102.692 142.992C102.618 142.718 102.565 142.439 102.532 142.158C102.473 141.656 102.485 141.148 102.567 140.649C102.581 140.565 102.621 140.487 102.682 140.426C102.742 140.366 102.82 140.326 102.904 140.312C102.985 140.295 103.069 140.303 103.145 140.335C103.221 140.367 103.286 140.421 103.33 140.49C104.786 142.815 108.033 144.128 111.459 143.755C115.203 143.347 118.256 141.058 118.877 138.183C118.89 138.103 118.928 138.029 118.986 137.972C119.043 137.915 119.116 137.877 119.196 137.863C119.276 137.854 119.356 137.868 119.428 137.902C119.501 137.937 119.562 137.991 119.604 138.058C119.982 138.724 120.218 139.462 120.297 140.223C120.326 140.506 120.338 140.791 120.332 141.075C120.155 144.625 116.658 147.642 112.168 148.139C111.76 148.174 111.334 148.21 110.926 148.21ZM103.206 141.537C103.206 141.714 103.206 141.892 103.224 142.069C103.242 142.247 103.313 142.584 103.366 142.815C104.2 145.903 107.945 147.89 112.097 147.429C116.233 146.985 119.462 144.234 119.622 141.04C119.627 140.791 119.615 140.542 119.587 140.294C119.551 139.9 119.461 139.511 119.321 139.141C118.291 141.927 115.221 144.057 111.53 144.447C108.193 144.82 104.945 143.666 103.206 141.537Z" fill="#212529"/>
<path d="M110.305 144.518C107.005 144.518 104.023 143.081 102.639 140.72L102.568 140.614L102.603 140.472C103.224 137.26 106.543 134.686 110.66 134.243C114.423 133.835 117.99 135.325 119.552 137.97L119.605 138.076V138.218C118.984 141.448 115.665 144.004 111.548 144.447C111.136 144.498 110.721 144.522 110.305 144.518ZM103.331 140.49C104.768 142.815 108.016 144.128 111.459 143.755C115.204 143.347 118.238 141.075 118.86 138.218C117.422 135.876 114.174 134.58 110.731 134.953C106.987 135.361 103.952 137.615 103.331 140.49Z" fill="#212529"/>
<path d="M107.217 147.216C107.131 147.217 107.048 147.187 106.983 147.131C106.918 147.076 106.875 146.999 106.862 146.914L106.507 143.631C106.499 143.585 106.501 143.538 106.513 143.494C106.524 143.449 106.545 143.407 106.573 143.37C106.601 143.333 106.637 143.303 106.677 143.281C106.718 143.258 106.763 143.245 106.809 143.24C106.855 143.236 106.902 143.24 106.947 143.253C106.992 143.267 107.034 143.289 107.07 143.319C107.107 143.348 107.137 143.385 107.159 143.426C107.181 143.468 107.195 143.513 107.199 143.56L107.572 146.825C107.577 146.872 107.572 146.919 107.559 146.964C107.545 147.009 107.523 147.051 107.493 147.087C107.464 147.124 107.427 147.154 107.386 147.176C107.344 147.198 107.299 147.211 107.252 147.216H107.217Z" fill="#212529"/>
<path d="M110.855 147.855C110.767 147.855 110.682 147.823 110.616 147.764C110.55 147.704 110.509 147.623 110.5 147.535L110.092 144.217C110.086 144.121 110.115 144.027 110.174 143.952C110.233 143.877 110.318 143.826 110.411 143.808C110.458 143.803 110.505 143.808 110.55 143.821C110.595 143.835 110.637 143.857 110.673 143.887C110.71 143.916 110.74 143.953 110.762 143.994C110.784 144.036 110.798 144.081 110.802 144.128L111.21 147.464C111.215 147.511 111.211 147.558 111.197 147.603C111.184 147.648 111.162 147.69 111.132 147.726C111.102 147.762 111.066 147.792 111.024 147.815C110.983 147.837 110.937 147.85 110.891 147.855H110.855Z" fill="#212529"/>
<path d="M116.108 146.896C116.025 146.898 115.944 146.871 115.879 146.819C115.814 146.767 115.77 146.694 115.753 146.612L115.061 142.974C115.045 142.88 115.065 142.784 115.118 142.705C115.171 142.626 115.252 142.57 115.345 142.548C115.436 142.533 115.531 142.554 115.607 142.607C115.683 142.66 115.736 142.741 115.753 142.832L116.463 146.488C116.478 146.58 116.457 146.674 116.404 146.75C116.351 146.827 116.27 146.879 116.179 146.896H116.108Z" fill="#212529"/>
<path d="M106.046 139.904C105.957 139.904 105.872 139.872 105.806 139.813C105.741 139.754 105.7 139.672 105.691 139.585C105.673 139.514 105.62 138.875 106.241 138.218C107.217 137.171 109.24 136.692 112.275 136.834C115.31 136.976 116.836 137.455 117.155 138.36C117.368 138.928 116.96 139.478 116.694 139.709C116.622 139.757 116.535 139.777 116.449 139.766C116.363 139.754 116.285 139.712 116.228 139.647C116.171 139.581 116.14 139.497 116.141 139.411C116.142 139.324 116.174 139.241 116.232 139.176C116.232 139.176 116.587 138.857 116.481 138.591C116.374 138.325 115.895 137.686 112.239 137.544C108.583 137.402 107.359 138.076 106.791 138.679C106.223 139.283 106.401 139.496 106.401 139.514C106.406 139.607 106.376 139.699 106.317 139.771C106.258 139.843 106.174 139.891 106.081 139.904H106.046Z" fill="#212529"/>
<path d="M74.7933 80.6999C73.2493 80.6999 72.3974 79.6706 72.007 78.9607C71.5811 79.4576 70.7115 80.061 69.061 79.8835C66.7539 79.6173 66.2569 77.5587 66.1682 76.5293C65.5116 76.7955 64.1983 77.2392 63.098 76.3519C62.2639 75.6775 61.9622 74.6481 62.2639 73.4946C61.341 73.6011 59.7083 73.3881 58.7144 72.3055C57.7206 71.223 57.6674 70.1936 58.0401 68.6141C57.1527 68.7916 56.1411 68.8094 55.7152 68.2414C55.2893 67.6735 55.5022 67.1944 55.9991 66.3958L56.6025 66.7684C56.1411 67.5138 56.2476 67.7623 56.2831 67.8155C56.3186 67.8688 57.0817 68.1172 58.1998 67.851C58.2852 67.8337 58.3735 67.8375 58.4571 67.8623C58.5406 67.887 58.6168 67.9319 58.6789 67.993C58.7371 68.0603 58.7787 68.1403 58.8003 68.2266C58.8218 68.313 58.8228 68.4031 58.8032 68.4899C58.395 69.9629 58.5547 71.081 59.2291 71.8264C59.9035 72.5717 61.6782 72.8912 62.2994 72.7847C62.4012 72.7589 62.5081 72.7618 62.6084 72.7931C62.7087 72.8244 62.7983 72.883 62.8673 72.9622C62.9356 73.0414 62.9829 73.1367 63.0046 73.239C63.0263 73.3414 63.0218 73.4476 62.9915 73.5478C62.7963 74.2045 62.7253 75.1273 63.5416 75.8017C64.358 76.4761 65.4051 76.1034 66.115 75.7662L66.186 75.7307C66.2565 75.697 66.3347 75.6826 66.4126 75.6888C66.4905 75.695 66.5654 75.7217 66.6296 75.7662C66.6954 75.8093 66.7503 75.867 66.7903 75.9346C66.8303 76.0023 66.8543 76.0783 66.8603 76.1566C66.8781 76.7955 67.0911 78.9429 69.132 79.1736C70.7292 79.3511 71.3858 78.6945 71.6343 78.2863C71.6783 78.2093 71.7435 78.1465 71.8222 78.1056C71.9009 78.0647 71.9897 78.0473 72.078 78.0556C72.1621 78.0564 72.244 78.0822 72.3135 78.1296C72.383 78.1769 72.4369 78.2438 72.4684 78.3218C72.7169 78.8542 73.4268 80.0787 74.953 79.99C76.4793 79.9013 76.7987 79.0317 76.9407 78.4993C76.959 78.4168 77.0004 78.3412 77.0601 78.2815C77.1199 78.2218 77.1954 78.1803 77.2779 78.1621C77.3633 78.1447 77.4516 78.1486 77.5352 78.1733C77.6187 78.1981 77.6949 78.243 77.757 78.304C78.2717 78.8897 79.656 80.1497 81.3242 79.1736C82.9924 78.1976 82.602 77.3634 82.2471 76.6713C82.2051 76.5824 82.1895 76.4833 82.2021 76.3858C82.2147 76.2883 82.2549 76.1965 82.318 76.1211C82.3869 76.0537 82.4739 76.0077 82.5684 75.9888C82.663 75.9699 82.7609 75.9789 82.8505 76.0147C83.6668 76.3341 85.548 76.6358 86.0627 76.0324C86.5773 75.429 85.8852 73.8673 85.619 73.4413C85.5784 73.3689 85.5542 73.2885 85.5481 73.2057C85.5419 73.1229 85.554 73.0398 85.5835 72.9622C85.6177 72.8862 85.6692 72.8194 85.734 72.767C85.7987 72.7146 85.8748 72.6781 85.9562 72.6605C86.4709 72.554 88.1568 72.1103 88.7425 70.9213C89.0619 70.2469 88.9909 69.4128 88.5295 68.4544C88.4805 68.3591 88.4595 68.2518 88.469 68.145C88.4784 68.0382 88.5178 67.9363 88.5828 67.851C88.6504 67.764 88.7413 67.6978 88.8449 67.6602C88.9485 67.6225 89.0606 67.6148 89.1684 67.638C89.8428 67.7623 91.4578 67.9752 91.6353 67.0524L92.3274 67.1944C92.1144 68.2414 91.0141 68.6674 89.2749 68.3657C89.7363 69.4482 89.7718 70.4066 89.3814 71.223C88.7425 72.5185 87.1985 73.0864 86.3644 73.2994C86.7903 74.0802 87.4292 75.5532 86.6128 76.4938C85.7965 77.4344 84.0218 77.0972 83.0634 76.831C83.2941 77.5764 83.3296 78.8364 81.6791 79.7948C80.0287 80.7531 78.2185 79.7593 77.4908 79.0672C77.2246 79.7061 76.568 80.6112 74.9885 80.6999H74.7933Z" fill="#212529"/>
<path d="M51.0831 61.9589C50.2472 61.9396 49.4272 61.727 48.6873 61.3377L48.6163 61.3022C48.543 61.2763 48.4797 61.2282 48.4352 61.1646C48.3906 61.1009 48.3671 61.025 48.3678 60.9473C48.3678 60.8531 48.4052 60.7629 48.4718 60.6963C48.5383 60.6297 48.6286 60.5923 48.7228 60.5923C48.8309 60.6009 48.9349 60.6376 49.0245 60.6988C51.3316 61.8879 53.4612 61.1247 55.1827 58.4804C55.2079 58.4404 55.2409 58.4057 55.2797 58.3786C55.3185 58.3515 55.3624 58.3324 55.4087 58.3225C55.455 58.3125 55.5028 58.312 55.5494 58.3208C55.5959 58.3297 55.6402 58.3477 55.6796 58.3739C55.7177 58.3989 55.7503 58.4313 55.7755 58.4692C55.8008 58.5072 55.818 58.5498 55.8263 58.5946C55.8346 58.6394 55.8338 58.6853 55.8238 58.7298C55.8138 58.7742 55.795 58.8162 55.7683 58.8531C54.4551 60.9118 52.8401 61.9589 51.0831 61.9589Z" fill="#F8F9FA"/>
<path d="M109.329 104.658H109.276C109.183 104.641 109.101 104.589 109.045 104.514C108.989 104.438 108.964 104.344 108.974 104.25C109.027 104.002 112.719 78.3039 107.146 71.2228C107.111 71.1874 104.307 67.6024 102.851 66.5554C101.822 65.81 101.858 64.3547 102.461 63.4319C103.064 62.509 103.969 62.2961 104.875 62.8285C104.916 62.8505 104.952 62.8807 104.98 62.9173C105.009 62.9538 105.03 62.9959 105.041 63.0409C105.053 63.0859 105.055 63.1328 105.048 63.1787C105.041 63.2246 105.024 63.2685 104.999 63.3077C104.951 63.3867 104.874 63.4439 104.784 63.4671C104.695 63.4903 104.6 63.4777 104.52 63.4319C103.721 62.9705 103.224 63.5384 103.047 63.8046C102.621 64.479 102.603 65.5083 103.26 65.9697C104.804 67.0878 107.59 70.6372 107.696 70.7792C113.464 78.1087 109.844 103.292 109.684 104.357C109.671 104.441 109.628 104.518 109.563 104.574C109.498 104.629 109.415 104.659 109.329 104.658Z" fill="#212529"/>
</svg>
